<svg width="244" height="80" viewBox="0 0 244 80" fill="none" xmlns="http://www.w3.org/2000/svg">
<g id="&#227;&#131;&#172;&#227;&#130;&#164;&#227;&#131;&#164;&#227;&#131;&#188; 1">
<g id="Group">
<path id="Vector" d="M44.3984 38.5016L42.5534 44.608C42.2909 45.4779 41.4915 46.0723 40.5866 46.0723H26.0675C24.5731 46.0723 23.5814 44.5174 24.2062 43.1544L42.6367 2.93197C43.2649 1.56191 42.2674 0 40.7659 0H35.1726C34.3744 0 33.6488 0.466102 33.3136 1.19233L10.2145 51.3194C9.58862 52.6777 10.5767 54.229 12.0665 54.229H36.871C38.2517 54.229 39.241 55.5685 38.8401 56.895L32.6619 77.3446C32.2622 78.6664 33.2479 80 34.6228 80H40.453C41.3567 80 42.1549 79.4056 42.4175 78.537L54.1516 39.701C54.5525 38.3745 53.5632 37.0351 52.1824 37.0351H46.3664C45.4603 37.0351 44.6609 37.6306 44.3972 38.5016H44.3984Z" fill="white"/>
<path id="Vector_2" d="M57.8065 16.5832C60.4794 16.5832 62.6462 14.4073 62.6462 11.7232C62.6462 9.03915 60.4794 6.86328 57.8065 6.86328C55.1336 6.86328 52.9668 9.03915 52.9668 11.7232C52.9668 14.4073 55.1336 16.5832 57.8065 16.5832Z" fill="#151B04"/>
<path id="Vector_3" d="M4.8397 78.9301C7.51259 78.9301 9.6794 76.7542 9.6794 74.0701C9.6794 71.3861 7.51259 69.2102 4.8397 69.2102C2.16681 69.2102 0 71.3861 0 74.0701C0 76.7542 2.16681 78.9301 4.8397 78.9301Z" fill="#151B04"/>
<path id="Vector_4" d="M79.7362 75.6298C82.1742 66.3019 84.6403 56.981 87.1077 47.6614C85.7996 47.6602 84.4927 47.6578 83.1846 47.6566C82.0535 47.6555 81.6526 47.054 81.9773 45.9288C82.2832 44.7294 82.588 43.5288 82.8939 42.3294C83.099 41.2995 83.957 40.5874 85.0049 40.6063C86.313 40.6063 87.6199 40.6074 88.928 40.6086C89.2304 39.5587 89.3816 39.0338 89.6828 37.9839C92.0775 29.5328 97.9463 23.4464 106.997 23.3982C112.92 23.3664 118.325 26.7362 116.563 33.3323C116.455 33.7077 116.267 34.1585 116.083 34.5352C115.792 35.2873 115.08 35.6628 114.326 35.6628C112.791 35.6628 111.258 35.6628 109.724 35.6628C108.819 35.6628 108.26 35.1366 108.481 34.3104C108.529 34.0997 108.554 33.9949 108.602 33.7842C109.234 31.921 107.05 30.9888 105.596 31.0041C102.529 31.0371 100.441 33.7972 99.6869 36.562C99.3188 37.9132 98.9508 39.2645 98.5828 40.6157C101.098 40.6169 103.612 40.618 106.128 40.6192C107.259 40.6192 107.736 41.2207 107.411 42.3483C107.105 43.5512 106.801 44.7529 106.495 45.9558C106.226 46.9728 105.371 47.7002 104.307 47.6837C101.842 47.6814 99.3786 47.6778 96.9137 47.6755C94.4229 56.9952 91.931 66.3148 89.4648 75.6416C89.0311 77.5872 87.4851 78.9161 85.4784 78.8972C84.3473 78.8972 83.2162 78.8972 82.0839 78.8972C80.164 78.9749 79.1876 77.4012 79.735 75.6333L79.7362 75.6298Z" fill="#151B04"/>
<path id="Vector_5" d="M110.206 59.4551C113.008 48.8184 122.746 39.4622 134.13 39.4999C138.849 39.5152 143.504 41.4196 145.407 46.0606C145.675 45.0648 145.808 44.5681 146.076 43.5736C146.51 41.6479 148.063 40.3179 150.053 40.3356C151.184 40.3356 152.316 40.3356 153.447 40.3367C155.379 40.1814 156.274 41.861 155.808 43.5806C152.982 54.2833 150.14 64.9825 147.31 75.684C146.867 77.6402 145.243 78.922 143.248 78.9055C142.142 78.9055 141.035 78.9055 139.93 78.9055C138.028 78.9832 137.028 77.4424 137.58 75.6769C137.854 74.6329 137.993 74.1115 138.267 73.071C134.283 77.127 129.302 79.7259 123.561 79.7529C118.883 79.7753 114.202 77.8779 111.624 73.8031C108.939 69.5552 108.967 64.1621 110.206 59.4575V59.4551ZM142.039 59.514C143.601 53.4829 140.635 47.5095 133.884 47.5566C127.132 47.6037 121.592 53.1663 119.937 59.4728C118.391 65.3626 120.883 71.4855 127.618 71.522C134.495 71.5597 140.37 65.9559 142.039 59.514Z" fill="#151B04"/>
<path id="Vector_6" d="M160.267 59.8435C163.48 47.7589 175.09 39.521 187.394 39.5198C191.304 39.5198 195.077 40.6062 198.356 42.7766C200.151 43.9124 199.264 46.1252 197.968 47.2434C197.475 47.6977 197.229 47.9249 196.737 48.3781C195.466 49.7305 193.694 50.2272 192.062 49.2055C190.057 48.2133 188.019 47.6848 185.782 47.6836C178.7 47.6813 171.881 52.6401 170.025 59.5574C168.22 66.2877 172.732 71.6137 179.512 71.5902C181.958 71.5819 184.309 70.9393 186.589 70.0777C187.974 69.3821 190.113 69.0431 190.82 70.8451C191.047 71.3324 191.161 71.576 191.39 72.0633C192.407 74.2997 190.201 76.1994 188.378 77.0068C184.706 78.6923 180.867 79.7234 176.815 79.7481C171.535 79.7811 165.81 78.2451 162.405 73.9219C159.27 69.94 159.01 64.5751 160.267 59.8411V59.8435Z" fill="#151B04"/>
<path id="Vector_7" d="M201.817 59.761C204.871 48.3332 216.07 39.4738 227.954 39.535C232.401 39.5585 237.128 40.7709 240.214 44.1925C243.595 47.9389 243.996 53.3297 243.008 58.0896C242.631 60.0329 240.948 61.1452 239.04 61.124C229.662 61.1063 220.283 61.0887 210.904 61.071C208.791 67.8142 215.016 71.7337 220.962 71.7219C224.582 71.7148 227.91 70.5861 231.097 68.9312C232.484 68.3697 234.486 67.7777 235.341 69.5456C235.582 69.8799 235.703 70.047 235.944 70.3801C237.023 72.2939 235.642 74.2384 233.996 75.2224C229.22 78.1379 223.934 79.7315 218.347 79.7516C213.061 79.7704 207.282 78.2603 203.887 73.8923C200.773 69.8857 200.552 64.4903 201.816 59.7621L201.817 59.761ZM234.458 54.9552C234.563 49.8799 230.746 47.3646 226.072 47.3445C220.545 47.321 215.855 50.28 212.958 54.9199C220.124 54.9316 227.291 54.9434 234.457 54.9552H234.458Z" fill="#151B04"/>
</g>
</g>
</svg>
